<svg width="148" height="24" viewBox="0 0 148 24" fill="none" xmlns="http://www.w3.org/2000/svg">
<path d="M53.7203 19.4972C52.9983 19.4972 52.3195 19.3549 51.684 19.0702C51.0484 18.7803 50.4891 18.3812 50.0061 17.8728C49.5282 17.3643 49.1519 16.7771 48.8774 16.111C48.6079 15.4399 48.4732 14.723 48.4732 13.9603C48.4732 13.1926 48.6079 12.4757 48.8774 11.8096C49.1519 11.1385 49.5282 10.5513 50.0061 10.0479C50.4891 9.53947 51.0484 9.14288 51.684 8.85816C52.3195 8.56835 52.9983 8.42344 53.7203 8.42344C54.5846 8.42344 55.3803 8.62428 56.1074 9.02594C56.8344 9.42253 57.4369 9.95384 57.9149 10.6199L56.2523 11.5122C55.9523 11.141 55.5786 10.8436 55.1312 10.6199C54.6888 10.3962 54.2185 10.2843 53.7203 10.2843C53.2525 10.2843 52.8127 10.3809 52.4009 10.5741C51.989 10.7623 51.628 11.0267 51.3179 11.3673C51.0077 11.7029 50.7662 12.0944 50.5934 12.5418C50.4205 12.9841 50.334 13.457 50.334 13.9603C50.334 14.4688 50.4205 14.9442 50.5934 15.3865C50.7713 15.8289 51.0154 16.2204 51.3255 16.561C51.6357 16.8966 51.9941 17.161 52.4009 17.3542C52.8127 17.5423 53.2525 17.6364 53.7203 17.6364C54.2287 17.6364 54.7015 17.5245 55.1388 17.3008C55.5811 17.072 55.9523 16.772 56.2523 16.4008L57.9149 17.3008C57.4369 17.9618 56.8344 18.4931 56.1074 18.8947C55.3803 19.2964 54.5846 19.4972 53.7203 19.4972ZM59.4547 19.299L59.4471 11.6724H61.308L61.3156 12.3511C61.5749 12.0766 61.8851 11.8605 62.2461 11.7029C62.607 11.5402 62.996 11.4588 63.4129 11.4588C63.6926 11.4588 63.9722 11.4995 64.2518 11.5808L63.5197 13.457C63.3265 13.3807 63.1333 13.3426 62.9401 13.3426C62.6401 13.3426 62.3655 13.4163 62.1164 13.5638C61.8724 13.7061 61.6766 13.9019 61.5292 14.151C61.3868 14.3951 61.3156 14.6671 61.3156 14.9671V19.299H59.4547ZM68.2582 19.4972C67.5565 19.4972 66.9159 19.3167 66.3363 18.9558C65.7618 18.5948 65.3016 18.1117 64.9559 17.5067C64.6152 16.8966 64.4449 16.2229 64.4449 15.4857C64.4449 14.9264 64.544 14.4052 64.7423 13.9222C64.9406 13.4341 65.2126 13.007 65.5584 12.6409C65.9092 12.2698 66.316 11.98 66.7786 11.7715C67.2413 11.5631 67.7345 11.4588 68.2582 11.4588C68.9598 11.4588 69.5979 11.6393 70.1725 12.0003C70.7521 12.3613 71.2122 12.8469 71.5529 13.457C71.8986 14.0671 72.0715 14.7433 72.0715 15.4857C72.0715 16.0399 71.9723 16.5585 71.774 17.0415C71.5758 17.5245 71.3012 17.9516 70.9504 18.3227C70.6046 18.6888 70.2004 18.9761 69.7377 19.1846C69.2801 19.393 68.787 19.4972 68.2582 19.4972ZM68.2582 17.6364C68.6293 17.6364 68.9624 17.5372 69.2573 17.3389C69.5522 17.1406 69.7835 16.8788 69.9513 16.5534C70.1242 16.228 70.2106 15.8721 70.2106 15.4857C70.2106 15.0891 70.1216 14.7281 69.9437 14.4027C69.7708 14.0722 69.5344 13.8104 69.2344 13.6171C68.9395 13.4189 68.6141 13.3197 68.2582 13.3197C67.8921 13.3197 67.5616 13.4189 67.2667 13.6171C66.9718 13.8154 66.738 14.0798 66.5651 14.4103C66.3922 14.7408 66.3058 15.0992 66.3058 15.4857C66.3058 15.8873 66.3948 16.2509 66.5727 16.5763C66.7507 16.9017 66.9871 17.161 67.282 17.3542C67.582 17.5423 67.9074 17.6364 68.2582 17.6364ZM76.9893 19.299H75.1437L72.5964 11.6724H74.4192L76.0741 16.6068L77.7215 11.6724H79.5595L81.2068 16.6068L82.8618 11.6724H84.6845L82.1373 19.299H80.2916L78.6367 14.3417L76.9893 19.299ZM92.9581 14.4789V19.299H91.0972V14.9671C91.0972 14.6671 91.0235 14.3951 90.876 14.151C90.7286 13.9019 90.5303 13.7061 90.2811 13.5638C90.0371 13.4163 89.7651 13.3426 89.4651 13.3426C89.1651 13.3426 88.8906 13.4163 88.6414 13.5638C88.3974 13.7061 88.2016 13.9019 88.0542 14.151C87.9118 14.3951 87.8406 14.6671 87.8406 14.9671V19.299H85.9797L85.9721 11.6724H87.833L87.8406 12.3511C88.0999 12.0766 88.4101 11.8605 88.7711 11.7029C89.1321 11.5402 89.521 11.4588 89.9379 11.4588C90.4921 11.4588 90.998 11.5961 91.4556 11.8707C91.9132 12.1401 92.2768 12.5037 92.5462 12.9613C92.8208 13.4138 92.9581 13.9197 92.9581 14.4789ZM98.4739 19.4972C97.8841 19.4972 97.3172 19.4057 96.7731 19.2227C96.2342 19.0346 95.7614 18.7676 95.3546 18.4219C94.9478 18.0711 94.6555 17.6516 94.4775 17.1635L96.224 16.5229C96.2952 16.7262 96.4401 16.9118 96.6587 17.0796C96.8774 17.2474 97.1443 17.3821 97.4595 17.4838C97.7748 17.5855 98.1129 17.6364 98.4739 17.6364C98.845 17.6364 99.1908 17.5804 99.5111 17.4686C99.8365 17.3516 100.098 17.1915 100.297 16.9881C100.495 16.7796 100.594 16.5381 100.594 16.2636C100.594 15.9839 100.49 15.7551 100.281 15.5772C100.073 15.3941 99.806 15.2492 99.4806 15.1425C99.1552 15.0357 98.8196 14.9543 98.4739 14.8984C97.7163 14.7815 97.0375 14.601 96.4376 14.3569C95.8376 14.1129 95.3622 13.7748 95.0114 13.3426C94.6657 12.9104 94.4928 12.3511 94.4928 11.6647C94.4928 11.019 94.6784 10.4547 95.0495 9.97164C95.4207 9.48862 95.9088 9.11238 96.5138 8.84291C97.1189 8.57343 97.7722 8.4387 98.4739 8.4387C99.0586 8.4387 99.6229 8.53022 100.167 8.71325C100.711 8.89629 101.186 9.16322 101.593 9.51404C102.005 9.86487 102.3 10.2869 102.478 10.7801L100.724 11.4131C100.653 11.2097 100.508 11.0241 100.289 10.8563C100.07 10.6885 99.8034 10.5563 99.4882 10.4597C99.173 10.3581 98.8349 10.3072 98.4739 10.3072C98.1129 10.3021 97.7697 10.3606 97.4443 10.4826C97.124 10.5996 96.8621 10.7597 96.6587 10.9631C96.4554 11.1665 96.3537 11.4004 96.3537 11.6647C96.3537 12.0054 96.4477 12.2622 96.6359 12.435C96.8291 12.6079 97.0858 12.735 97.4062 12.8164C97.7265 12.8926 98.0824 12.9638 98.4739 13.0299C99.1857 13.1418 99.8441 13.3299 100.449 13.5943C101.054 13.8587 101.54 14.212 101.906 14.6544C102.272 15.0916 102.455 15.628 102.455 16.2636C102.455 16.9093 102.272 17.4762 101.906 17.9643C101.54 18.4473 101.054 18.8236 100.449 19.093C99.8441 19.3625 99.1857 19.4972 98.4739 19.4972ZM109.041 11.6724H111.017L106.845 23.1122H104.869L106.25 19.299L103.504 11.6724H105.541L107.18 16.7517L109.041 11.6724ZM119.379 14.4789V19.299H117.518V14.9671C117.518 14.6671 117.444 14.3951 117.297 14.151C117.149 13.9019 116.951 13.7061 116.702 13.5638C116.458 13.4163 116.186 13.3426 115.886 13.3426C115.586 13.3426 115.311 13.4163 115.062 13.5638C114.818 13.7061 114.622 13.9019 114.475 14.151C114.333 14.3951 114.261 14.6671 114.261 14.9671V19.299H112.4L112.393 11.6724H114.254L114.261 12.3511C114.521 12.0766 114.831 11.8605 115.192 11.7029C115.553 11.5402 115.942 11.4588 116.359 11.4588C116.913 11.4588 117.419 11.5961 117.876 11.8707C118.334 12.1401 118.698 12.5037 118.967 12.9613C119.242 13.4138 119.379 13.9197 119.379 14.4789ZM125.63 17.0033L127.308 17.9109C126.957 18.3888 126.518 18.7727 125.989 19.0625C125.46 19.3523 124.883 19.4972 124.258 19.4972C123.556 19.4972 122.915 19.3167 122.336 18.9558C121.761 18.5948 121.301 18.1117 120.955 17.5067C120.615 16.8966 120.444 16.2229 120.444 15.4857C120.444 14.9264 120.543 14.4052 120.742 13.9222C120.94 13.4341 121.212 13.007 121.558 12.6409C121.909 12.2698 122.315 11.98 122.778 11.7715C123.241 11.5631 123.734 11.4588 124.258 11.4588C124.883 11.4588 125.46 11.6037 125.989 11.8935C126.518 12.1833 126.957 12.5723 127.308 13.0604L125.63 13.9603C125.452 13.757 125.241 13.5994 124.997 13.4875C124.758 13.3756 124.512 13.3197 124.258 13.3197C123.891 13.3197 123.561 13.4214 123.266 13.6248C122.971 13.8231 122.737 14.0875 122.564 14.4179C122.392 14.7433 122.305 15.0992 122.305 15.4857C122.305 15.867 122.392 16.2229 122.564 16.5534C122.737 16.8788 122.971 17.1406 123.266 17.3389C123.561 17.5372 123.891 17.6364 124.258 17.6364C124.522 17.6364 124.774 17.5804 125.013 17.4686C125.252 17.3516 125.457 17.1966 125.63 17.0033ZM136.216 8.62173H138.359L142.241 19.299H140.266L139.579 17.4076H135.003L134.317 19.299H132.342L136.216 8.62173ZM135.682 15.5467H138.893L137.284 11.1461L135.682 15.5467ZM143.902 19.299V8.62173H145.763V19.299H143.902Z" fill="white"/>
<path d="M53.7203 19.4972C52.9983 19.4972 52.3195 19.3549 51.684 19.0702C51.0484 18.7803 50.4891 18.3812 50.0061 17.8728C49.5282 17.3643 49.1519 16.7771 48.8774 16.111C48.6079 15.4399 48.4732 14.723 48.4732 13.9603C48.4732 13.1926 48.6079 12.4757 48.8774 11.8096C49.1519 11.1385 49.5282 10.5513 50.0061 10.0479C50.4891 9.53947 51.0484 9.14288 51.684 8.85816C52.3195 8.56835 52.9983 8.42344 53.7203 8.42344C54.5846 8.42344 55.3803 8.62428 56.1074 9.02594C56.8344 9.42253 57.4369 9.95384 57.9149 10.6199L56.2523 11.5122C55.9523 11.141 55.5786 10.8436 55.1312 10.6199C54.6888 10.3962 54.2185 10.2843 53.7203 10.2843C53.2525 10.2843 52.8127 10.3809 52.4009 10.5741C51.989 10.7623 51.628 11.0267 51.3179 11.3673C51.0077 11.7029 50.7662 12.0944 50.5934 12.5418C50.4205 12.9841 50.334 13.457 50.334 13.9603C50.334 14.4688 50.4205 14.9442 50.5934 15.3865C50.7713 15.8289 51.0154 16.2204 51.3255 16.561C51.6357 16.8966 51.9941 17.161 52.4009 17.3542C52.8127 17.5423 53.2525 17.6364 53.7203 17.6364C54.2287 17.6364 54.7015 17.5245 55.1388 17.3008C55.5811 17.072 55.9523 16.772 56.2523 16.4008L57.9149 17.3008C57.4369 17.9618 56.8344 18.4931 56.1074 18.8947C55.3803 19.2964 54.5846 19.4972 53.7203 19.4972ZM59.4547 19.299L59.4471 11.6724H61.308L61.3156 12.3511C61.5749 12.0766 61.8851 11.8605 62.2461 11.7029C62.607 11.5402 62.996 11.4588 63.4129 11.4588C63.6926 11.4588 63.9722 11.4995 64.2518 11.5808L63.5197 13.457C63.3265 13.3807 63.1333 13.3426 62.9401 13.3426C62.6401 13.3426 62.3655 13.4163 62.1164 13.5638C61.8724 13.7061 61.6766 13.9019 61.5292 14.151C61.3868 14.3951 61.3156 14.6671 61.3156 14.9671V19.299H59.4547ZM68.2582 19.4972C67.5565 19.4972 66.9159 19.3167 66.3363 18.9558C65.7618 18.5948 65.3016 18.1117 64.9559 17.5067C64.6152 16.8966 64.4449 16.2229 64.4449 15.4857C64.4449 14.9264 64.544 14.4052 64.7423 13.9222C64.9406 13.4341 65.2126 13.007 65.5584 12.6409C65.9092 12.2698 66.316 11.98 66.7786 11.7715C67.2413 11.5631 67.7345 11.4588 68.2582 11.4588C68.9598 11.4588 69.5979 11.6393 70.1725 12.0003C70.7521 12.3613 71.2122 12.8469 71.5529 13.457C71.8986 14.0671 72.0715 14.7433 72.0715 15.4857C72.0715 16.0399 71.9723 16.5585 71.774 17.0415C71.5758 17.5245 71.3012 17.9516 70.9504 18.3227C70.6046 18.6888 70.2004 18.9761 69.7377 19.1846C69.2801 19.393 68.787 19.4972 68.2582 19.4972ZM68.2582 17.6364C68.6293 17.6364 68.9624 17.5372 69.2573 17.3389C69.5522 17.1406 69.7835 16.8788 69.9513 16.5534C70.1242 16.228 70.2106 15.8721 70.2106 15.4857C70.2106 15.0891 70.1216 14.7281 69.9437 14.4027C69.7708 14.0722 69.5344 13.8104 69.2344 13.6171C68.9395 13.4189 68.6141 13.3197 68.2582 13.3197C67.8921 13.3197 67.5616 13.4189 67.2667 13.6171C66.9718 13.8154 66.738 14.0798 66.5651 14.4103C66.3922 14.7408 66.3058 15.0992 66.3058 15.4857C66.3058 15.8873 66.3948 16.2509 66.5727 16.5763C66.7507 16.9017 66.9871 17.161 67.282 17.3542C67.582 17.5423 67.9074 17.6364 68.2582 17.6364ZM76.9893 19.299H75.1437L72.5964 11.6724H74.4192L76.0741 16.6068L77.7215 11.6724H79.5595L81.2068 16.6068L82.8618 11.6724H84.6845L82.1373 19.299H80.2916L78.6367 14.3417L76.9893 19.299ZM92.9581 14.4789V19.299H91.0972V14.9671C91.0972 14.6671 91.0235 14.3951 90.876 14.151C90.7286 13.9019 90.5303 13.7061 90.2811 13.5638C90.0371 13.4163 89.7651 13.3426 89.4651 13.3426C89.1651 13.3426 88.8906 13.4163 88.6414 13.5638C88.3974 13.7061 88.2016 13.9019 88.0542 14.151C87.9118 14.3951 87.8406 14.6671 87.8406 14.9671V19.299H85.9797L85.9721 11.6724H87.833L87.8406 12.3511C88.0999 12.0766 88.4101 11.8605 88.7711 11.7029C89.1321 11.5402 89.521 11.4588 89.9379 11.4588C90.4921 11.4588 90.998 11.5961 91.4556 11.8707C91.9132 12.1401 92.2768 12.5037 92.5462 12.9613C92.8208 13.4138 92.9581 13.9197 92.9581 14.4789ZM98.4739 19.4972C97.8841 19.4972 97.3172 19.4057 96.7731 19.2227C96.2342 19.0346 95.7614 18.7676 95.3546 18.4219C94.9478 18.0711 94.6555 17.6516 94.4775 17.1635L96.224 16.5229C96.2952 16.7262 96.4401 16.9118 96.6587 17.0796C96.8774 17.2474 97.1443 17.3821 97.4595 17.4838C97.7748 17.5855 98.1129 17.6364 98.4739 17.6364C98.845 17.6364 99.1908 17.5804 99.5111 17.4686C99.8365 17.3516 100.098 17.1915 100.297 16.9881C100.495 16.7796 100.594 16.5381 100.594 16.2636C100.594 15.9839 100.49 15.7551 100.281 15.5772C100.073 15.3941 99.806 15.2492 99.4806 15.1425C99.1552 15.0357 98.8196 14.9543 98.4739 14.8984C97.7163 14.7815 97.0375 14.601 96.4376 14.3569C95.8376 14.1129 95.3622 13.7748 95.0114 13.3426C94.6657 12.9104 94.4928 12.3511 94.4928 11.6647C94.4928 11.019 94.6784 10.4547 95.0495 9.97164C95.4207 9.48862 95.9088 9.11238 96.5138 8.84291C97.1189 8.57343 97.7722 8.4387 98.4739 8.4387C99.0586 8.4387 99.6229 8.53022 100.167 8.71325C100.711 8.89629 101.186 9.16322 101.593 9.51404C102.005 9.86487 102.3 10.2869 102.478 10.7801L100.724 11.4131C100.653 11.2097 100.508 11.0241 100.289 10.8563C100.07 10.6885 99.8034 10.5563 99.4882 10.4597C99.173 10.3581 98.8349 10.3072 98.4739 10.3072C98.1129 10.3021 97.7697 10.3606 97.4443 10.4826C97.124 10.5996 96.8621 10.7597 96.6587 10.9631C96.4554 11.1665 96.3537 11.4004 96.3537 11.6647C96.3537 12.0054 96.4477 12.2622 96.6359 12.435C96.8291 12.6079 97.0858 12.735 97.4062 12.8164C97.7265 12.8926 98.0824 12.9638 98.4739 13.0299C99.1857 13.1418 99.8441 13.3299 100.449 13.5943C101.054 13.8587 101.54 14.212 101.906 14.6544C102.272 15.0916 102.455 15.628 102.455 16.2636C102.455 16.9093 102.272 17.4762 101.906 17.9643C101.54 18.4473 101.054 18.8236 100.449 19.093C99.8441 19.3625 99.1857 19.4972 98.4739 19.4972ZM109.041 11.6724H111.017L106.845 23.1122H104.869L106.25 19.299L103.504 11.6724H105.541L107.18 16.7517L109.041 11.6724ZM119.379 14.4789V19.299H117.518V14.9671C117.518 14.6671 117.444 14.3951 117.297 14.151C117.149 13.9019 116.951 13.7061 116.702 13.5638C116.458 13.4163 116.186 13.3426 115.886 13.3426C115.586 13.3426 115.311 13.4163 115.062 13.5638C114.818 13.7061 114.622 13.9019 114.475 14.151C114.333 14.3951 114.261 14.6671 114.261 14.9671V19.299H112.4L112.393 11.6724H114.254L114.261 12.3511C114.521 12.0766 114.831 11.8605 115.192 11.7029C115.553 11.5402 115.942 11.4588 116.359 11.4588C116.913 11.4588 117.419 11.5961 117.876 11.8707C118.334 12.1401 118.698 12.5037 118.967 12.9613C119.242 13.4138 119.379 13.9197 119.379 14.4789ZM125.63 17.0033L127.308 17.9109C126.957 18.3888 126.518 18.7727 125.989 19.0625C125.46 19.3523 124.883 19.4972 124.258 19.4972C123.556 19.4972 122.915 19.3167 122.336 18.9558C121.761 18.5948 121.301 18.1117 120.955 17.5067C120.615 16.8966 120.444 16.2229 120.444 15.4857C120.444 14.9264 120.543 14.4052 120.742 13.9222C120.94 13.4341 121.212 13.007 121.558 12.6409C121.909 12.2698 122.315 11.98 122.778 11.7715C123.241 11.5631 123.734 11.4588 124.258 11.4588C124.883 11.4588 125.46 11.6037 125.989 11.8935C126.518 12.1833 126.957 12.5723 127.308 13.0604L125.63 13.9603C125.452 13.757 125.241 13.5994 124.997 13.4875C124.758 13.3756 124.512 13.3197 124.258 13.3197C123.891 13.3197 123.561 13.4214 123.266 13.6248C122.971 13.8231 122.737 14.0875 122.564 14.4179C122.392 14.7433 122.305 15.0992 122.305 15.4857C122.305 15.867 122.392 16.2229 122.564 16.5534C122.737 16.8788 122.971 17.1406 123.266 17.3389C123.561 17.5372 123.891 17.6364 124.258 17.6364C124.522 17.6364 124.774 17.5804 125.013 17.4686C125.252 17.3516 125.457 17.1966 125.63 17.0033ZM136.216 8.62173H138.359L142.241 19.299H140.266L139.579 17.4076H135.003L134.317 19.299H132.342L136.216 8.62173ZM135.682 15.5467H138.893L137.284 11.1461L135.682 15.5467ZM143.902 19.299V8.62173H145.763V19.299H143.902Z" fill="#0B0B0D"/>
<path d="M28.7267 11.5921L34.5471 20.6401L39.8629 8.01833L28.7267 11.5921Z" fill="#0B0B0D"/>
<path d="M11.3929 11.5528L0.136841 7.95891L5.57595 20.6401L11.3929 11.5528Z" fill="#0B0B0D"/>
<path d="M23.2202 20.6681L32.8383 20.701L20.0064 0.701011L15.1926 8.19153L23.2202 20.6681Z" fill="#0B0B0D"/>
<path d="M7.27485 20.6681L14.4065 9.52228L19.0232 16.7098L16.6444 20.6681H7.27485Z" fill="#0B0B0D"/>
</svg>
